<?xml version="1.0" encoding="UTF-8"?>
<svg width="338px" height="338px" viewBox="0 0 338 338" version="1.1" xmlns="http://www.w3.org/2000/svg" xmlns:xlink="http://www.w3.org/1999/xlink" xmlns:sketch="http://www.bohemiancoding.com/sketch/ns">
    <!-- Generator: Sketch 3.4.2 (15855) - http://www.bohemiancoding.com/sketch -->
    <title>casitaAzulLogo</title>
    <desc>Created with Sketch.</desc>
    <defs></defs>
    <g id="Page-1" stroke="none" stroke-width="1" fill="none" fill-rule="evenodd" sketch:type="MSPage">
        <rect id="Rectangle-8" stroke="#979797" fill-opacity="0.62" fill="#EFF0F4" sketch:type="MSShapeGroup" x="12" y="12" width="314" height="314" rx="15"></rect>
        <g id="casitaAzul" sketch:type="MSLayerGroup" transform="translate(19.000000, 77.000000)">
            <rect id="Rectangle-7" stroke="#979FE4" fill="#BAC1F8" sketch:type="MSShapeGroup" x="70" y="84" width="116" height="67"></rect>
            <rect id="R-window" stroke="#979FE4" fill="#979FE5" sketch:type="MSShapeGroup" x="150" y="94" width="20" height="40"></rect>
            <rect id="L-window" stroke="#979FE4" fill="#979FE5" sketch:type="MSShapeGroup" x="80" y="93" width="20" height="40"></rect>
            <rect id="whole-door" stroke="#979FE4" fill="#8E96DC" sketch:type="MSShapeGroup" x="109" y="91" width="31" height="62"></rect>
            <rect id="dutch-bottom" stroke="#979797" fill="#979FE4" sketch:type="MSShapeGroup" x="109" y="120" width="31" height="31"></rect>
            <path d="M2.65136719,162 L67.6425781,151 L182.642578,151 L117.651367,162 L2.65136719,162 Z" id="Rectangle-7" fill="#BAC1F8" sketch:type="MSShapeGroup"></path>
            <path d="M185.5,150.55883 L185.5,74.0357508" id="near-wall-border" stroke="#979FE4" stroke-linecap="square" sketch:type="MSShapeGroup"></path>
            <path d="M70.5,97.5 L70.5,161.570274" id="hidden-wall-border" stroke="#979FE4" stroke-linecap="square" sketch:type="MSShapeGroup"></path>
            <path d="M2.5,97.5 L2.5,161.570274" id="porch-column" stroke="#979FE4" stroke-linecap="square" sketch:type="MSShapeGroup"></path>
            <path d="M43.5,130.5 L2.5,130.5" id="front-rail" stroke="#979FE4" stroke-linecap="square" sketch:type="MSShapeGroup"></path>
            <path d="M117.5,130.5 L76.5,130.5" id="front-rail" stroke="#8E96DB" stroke-linecap="square" sketch:type="MSShapeGroup"></path>
            <path d="M43.5,161.5 L43.5,131.035751" id="mini-post" stroke="#979FE4" stroke-linecap="square" sketch:type="MSShapeGroup"></path>
            <path d="M76.5,161.5 L76.5,131.035751" id="mini-post" stroke="#979FE4" stroke-linecap="square" sketch:type="MSShapeGroup"></path>
            <path d="M185.5,120.5 L119.5,130.5" id="side-rail" stroke="#8E96DB" stroke-linecap="square" sketch:type="MSShapeGroup"></path>
            <path d="M69.5,120.5 L3.5,130.5" id="side-rail" stroke="#979FE4" stroke-linecap="square" sketch:type="MSShapeGroup"></path>
            <path d="M116.5,97.5 L116.5,161.570274" id="porch-column" stroke="#8E96DB" stroke-linecap="square" sketch:type="MSShapeGroup"></path>
            <path d="M69.5,150.5 L2.5,161.5" id="far-floor-border" stroke="#979FE4" stroke-linecap="square" sketch:type="MSShapeGroup"></path>
            <path d="M70.5,150.5 L185.35643,150.5" id="front-door-bottom-border" stroke="#979FE4" stroke-linecap="square" sketch:type="MSShapeGroup"></path>
            <path d="M185.77832,75 L185.77832,87.3735352 L120.701837,97.0634648 L118,98 L-1.11022302e-16,98 L68,74 L68.68,74 L119,0 L237,0 L186.68,74 L187.238281,74 L186.507826,74.253197 L186,75 L185.77832,75 Z" id="Triangle-1" stroke="#979FE4" fill="#BAC1F8" sketch:type="MSShapeGroup"></path>
            <path d="M185.352539,150.401367 L185.352539,75.2216797 L236.221191,0.526855469 L298.360352,67.2509766 L298.319336,131.378906 L185.352539,150.401367 Z" id="Path-49" stroke="#8E96DB" fill="#FFFFFF" sketch:type="MSShapeGroup"></path>
            <path d="M258,37.6542969 L258,138.654297 L224,144 L224,43 L258,37.6542969 Z" id="adult-door" stroke="#979FE4" fill="#979FE4" sketch:type="MSShapeGroup"></path>
        </g>
        <path d="M141.749215,109.192 C141.374147,109.213333 140.975519,109.229333 140.553318,109.24 C140.131116,109.250667 139.695155,109.266667 139.245421,109.288 C138.795687,109.309333 138.389491,109.32 138.026823,109.32 C136.597482,109.32 135.327248,109.101336 134.21608,108.664 C133.104913,108.226664 132.29101,107.544005 131.774347,106.616 C131.257684,105.687995 131.098674,104.493341 131.297314,103.032 C131.495953,101.570659 132.190398,99.8160102 133.380671,97.768 C134.471754,95.8906573 135.796166,94.2266739 137.353946,92.776 C138.911726,91.3253261 140.56243,90.1093382 142.306108,89.128 C144.049786,88.1466618 145.806387,87.4000026 147.575963,86.888 C149.345538,86.3759974 150.998305,86.12 152.534313,86.12 C152.875648,86.12 153.327244,86.1413331 153.889117,86.184 C154.450989,86.2266669 155.006654,86.2799997 155.556127,86.344 C156.105601,86.4080003 156.587967,86.477333 157.003241,86.552 C157.418514,86.626667 157.67155,86.6959997 157.762354,86.76 C158.473642,86.0133296 159.167326,85.3520029 159.843425,84.776 C160.519524,84.1999971 161.243022,83.7626682 162.01394,83.464 C162.221803,83.3999997 162.42,83.3893331 162.608538,83.432 C162.797075,83.4746669 162.841748,83.5813325 162.742558,83.752 C162.524303,83.944001 162.376112,84.0613331 162.297981,84.104 C162.21985,84.1466669 162.138119,84.168 162.052785,84.168 C161.796784,84.168 161.477928,84.2853322 161.096208,84.52 C160.714488,84.7546678 160.308479,85.0586648 159.878168,85.432 C159.447857,85.8053352 159.013222,86.2319976 158.574251,86.712 C158.13528,87.1920024 157.730549,87.6773309 157.360046,88.168 C157.180994,88.4026678 156.974913,88.6746651 156.741799,88.984 C156.508685,89.2933349 156.284007,89.5973318 156.067758,89.896 C155.85151,90.1946682 155.652131,90.4826653 155.469615,90.76 C155.287098,91.0373347 155.140048,91.271999 155.02846,91.464 C154.966467,91.5706672 154.871107,91.661333 154.742378,91.736 C154.613649,91.810667 154.506619,91.848 154.421285,91.848 C154.293285,91.848 154.181148,91.7840006 154.084873,91.656 C154.309506,91.122664 154.44347,90.589336 154.486769,90.056 C154.530068,89.522664 154.435704,89.0426688 154.203675,88.616 C153.971646,88.1893312 153.572694,87.8480013 153.006808,87.592 C152.440922,87.3359987 151.667322,87.208 150.685983,87.208 C149.640645,87.208 148.564738,87.4533309 147.458231,87.944 C146.351724,88.4346691 145.267846,89.1066624 144.206563,89.96 C143.145279,90.8133376 142.124356,91.8266608 141.14376,93 C140.163165,94.1733392 139.282323,95.4319933 138.501206,96.776 C137.422522,98.6320093 136.651403,100.279993 136.187828,101.72 C135.724253,103.160007 135.531768,104.381328 135.610367,105.384 C135.688966,106.386672 136.035045,107.149331 136.648616,107.672 C137.262186,108.194669 138.112961,108.456 139.200967,108.456 C139.926304,108.456 140.703822,108.338668 141.533544,108.104 C142.363266,107.869332 143.189237,107.549335 144.011481,107.144 C144.833726,106.738665 145.629154,106.269336 146.39779,105.736 C147.166425,105.202664 147.852315,104.637336 148.455479,104.04 C148.547741,103.954666 148.696935,103.890667 148.903067,103.848 C149.109198,103.805333 149.187466,103.826666 149.137871,103.912 C148.976688,104.189335 148.665949,104.567998 148.205645,105.048 C147.74534,105.528002 147.258377,106.007998 146.744739,106.488 C146.231101,106.968002 145.742267,107.405331 145.278224,107.8 C144.814181,108.194669 144.502301,108.455999 144.342575,108.584 C144.191784,108.733334 143.997099,108.930665 143.758514,109.176 C143.519928,109.421335 143.273416,109.698665 143.018968,110.008 C142.76452,110.317335 142.50921,110.637332 142.25303,110.968 C141.99685,111.298668 141.775774,111.623998 141.589794,111.944 C141.391415,112.285335 141.224764,112.498666 141.089835,112.584 C140.954907,112.669334 140.748778,112.712 140.471444,112.712 C140.236776,112.712 140.226199,112.546668 140.439711,112.216 C140.653224,111.885332 140.92663,111.506669 141.259937,111.08 C141.593245,110.653331 141.911049,110.253335 142.213359,109.88 C142.51567,109.506665 142.655153,109.266667 142.631813,109.16 C142.418478,109.16 142.124282,109.170667 141.749215,109.192 Z M161.5462,102.824 C161.730173,102.397331 161.901745,101.992002 162.060921,101.608 C162.220097,101.223998 162.353607,100.893335 162.461456,100.616 C162.569305,100.338665 162.63736,100.157334 162.665621,100.072 C162.249894,100.200001 161.779108,100.349332 161.25325,100.52 C160.727392,100.690668 160.192243,100.877332 159.647786,101.08 C159.10333,101.282668 158.580215,101.485332 158.078426,101.688 C157.576637,101.890668 157.148153,102.077332 156.792962,102.248 C156.116313,102.568002 155.557006,102.887998 155.115025,103.208 C154.673044,103.528002 154.321872,103.911998 154.0615,104.36 C153.701938,104.97867 153.567109,105.522664 153.657006,105.992 C153.746904,106.461336 154.175848,106.696 154.943852,106.696 C155.349187,106.696 155.813911,106.621334 156.338037,106.472 C156.862164,106.322666 157.366681,106.152001 157.851604,105.96 C158.336527,105.767999 158.773444,105.576001 159.162367,105.384 C159.551289,105.191999 159.830077,105.042667 159.998738,104.936 C160.268594,104.765332 160.485616,104.621334 160.649809,104.504 C160.814003,104.386666 160.947424,104.221334 161.050077,104.008 C161.196854,103.645332 161.362227,103.250669 161.5462,102.824 Z M163.588939,97.272 C163.722039,96.7493307 163.762876,96.3120018 163.711453,95.96 C163.66003,95.6079982 163.505681,95.3413342 163.248401,95.16 C162.991121,94.9786658 162.595819,94.888 162.062483,94.888 C161.593148,94.888 161.111558,94.9733325 160.6177,95.144 C160.123842,95.3146675 159.664726,95.5173322 159.24034,95.752 C158.815953,95.9866678 158.455572,96.2213322 158.159185,96.456 C157.862799,96.6906678 157.666746,96.8719994 157.571021,97 C157.450498,97.1706675 157.304905,97.256 157.134237,97.256 C156.835569,97.256 156.620231,97.1493344 156.488217,96.936 C156.356202,96.7226656 156.376985,96.4666682 156.550567,96.168 C156.649756,95.9973325 156.74548,95.8693338 156.837742,95.784 C157.489594,95.5066653 158.2605,95.2080016 159.150483,94.888 C160.040467,94.5679984 160.944705,94.2693347 161.863225,93.992 C162.781745,93.7146653 163.667021,93.4853342 164.51908,93.304 C165.371139,93.1226658 166.095826,93.032 166.693163,93.032 C167.589167,93.032 168.202769,93.1599987 168.533988,93.416 C168.865206,93.6720013 169.011761,94.0346643 168.973658,94.504 C168.935555,94.9733357 168.760293,95.5226635 168.447866,96.152 C168.135438,96.7813365 167.789786,97.458663 167.410898,98.184 C166.842566,99.2720054 166.317273,100.322662 165.835003,101.336 C165.352733,102.349338 164.991995,103.245329 164.752778,104.024 C164.513561,104.802671 164.419803,105.431998 164.471501,105.912 C164.523199,106.392002 164.794379,106.632 165.285048,106.632 C165.519716,106.632 165.80051,106.589334 166.12744,106.504 C166.454369,106.418666 166.779926,106.317334 167.10412,106.2 C167.428314,106.082666 167.725836,105.965334 167.996697,105.848 C168.267557,105.730666 168.447384,105.650667 168.536181,105.608 C168.728182,105.608 168.789721,105.703999 168.7208,105.896 C168.658807,106.002667 168.58168,106.098666 168.489419,106.184 C168.421955,106.226667 168.199964,106.333332 167.82344,106.504 C167.446915,106.674668 166.9878,106.877332 166.446079,107.112 C165.904358,107.346668 165.310681,107.597332 164.665028,107.864 C164.019376,108.130668 163.388365,108.381332 162.771977,108.616 C162.155589,108.850668 161.601341,109.042666 161.109215,109.192 C160.617089,109.341334 160.253697,109.416 160.019029,109.416 C159.741694,109.416 159.566789,109.304001 159.494307,109.08 C159.421826,108.855999 159.419406,108.557335 159.487049,108.184 C159.554692,107.810665 159.677762,107.378669 159.856265,106.888 C160.034767,106.397331 160.236332,105.885336 160.460965,105.352 C159.890983,105.672002 159.180248,106.050664 158.328739,106.488 C157.477229,106.925336 156.587898,107.335998 155.660719,107.72 C154.733539,108.104002 153.824469,108.429332 152.933482,108.696 C152.042495,108.962668 151.255678,109.096 150.573008,109.096 C149.997005,109.096 149.548371,109.005334 149.227091,108.824 C148.905811,108.642666 148.687964,108.402668 148.573544,108.104 C148.459124,107.805332 148.447268,107.458669 148.537976,107.064 C148.628684,106.669331 148.798022,106.258669 149.045996,105.832 C149.442753,105.14933 149.976212,104.589336 150.646386,104.152 C151.316561,103.714664 152.225356,103.261336 153.372798,102.792 C153.90212,102.578666 154.631728,102.296002 155.561643,101.944 C156.491558,101.591998 157.440558,101.234668 158.408673,100.872 C159.376787,100.509332 160.282256,100.162668 161.125105,99.832 C161.967955,99.5013317 162.594498,99.240001 163.004754,99.048 C163.261112,98.3866634 163.455839,97.7946693 163.588939,97.272 Z M165.058884,108.728 C164.766966,108.973335 164.56248,109.159999 164.445421,109.288 C164.39929,109.330667 164.318927,109.368 164.204328,109.4 C164.08973,109.432 164.011098,109.448 163.968431,109.448 C163.77643,109.448 163.736224,109.352001 163.847813,109.16 C163.885009,109.096 164.069529,108.925335 164.401379,108.648 C164.653367,108.434666 165.051307,108.098669 165.595214,107.64 C166.13912,107.181331 166.69455,106.712002 167.261522,106.232 C167.828493,105.751998 168.349326,105.314669 168.824036,104.92 C169.298746,104.525331 169.626626,104.264001 169.807685,104.136 C169.976346,104.029333 170.113644,104.013333 170.219582,104.088 C170.325521,104.162667 170.315494,104.253333 170.1895,104.36 C170.122036,104.402667 170.05904,104.456 170.00051,104.52 C169.941981,104.584 169.869322,104.690666 169.782531,104.84 C169.670943,105.032001 169.696792,105.271999 169.860078,105.56 C170.023364,105.848001 170.283513,106.125332 170.640532,106.392 C170.997551,106.658668 171.429595,106.887999 171.936677,107.08 C172.443759,107.272001 172.99596,107.368 173.593296,107.368 C174.297299,107.368 174.975079,107.165335 175.626656,106.76 C176.278233,106.354665 176.796193,105.821337 177.180552,105.16 C177.614506,104.41333 177.702202,103.858668 177.443644,103.496 C177.185086,103.133332 176.764938,102.856001 176.18319,102.664 C175.601441,102.471999 174.934004,102.317334 174.180859,102.2 C173.427715,102.082666 172.772676,101.906668 172.215725,101.672 C171.658774,101.437332 171.275822,101.096002 171.066858,100.648 C170.857895,100.199998 171.001384,99.5493376 171.497331,98.696 C171.88169,98.0346634 172.501574,97.3626701 173.357,96.68 C174.212426,95.9973299 175.173777,95.389336 176.241081,94.856 C177.308385,94.322664 178.431879,93.885335 179.611596,93.544 C180.791313,93.202665 181.91449,93.032 182.981163,93.032 C183.301164,93.032 183.655896,93.0639997 184.045369,93.128 C184.434842,93.1920003 184.809676,93.2719995 185.169884,93.368 C185.530092,93.4640005 185.858295,93.5599995 186.154503,93.656 C186.450711,93.7520005 186.665547,93.8319997 186.799019,93.896 C186.841686,93.896 186.781425,93.9813325 186.618235,94.152 C186.442647,94.344001 186.112169,94.6373314 185.626793,95.032 C185.141416,95.4266686 184.63248,95.8159981 184.099969,96.2 C183.567458,96.5840019 183.081085,96.9253318 182.640835,97.224 C182.200586,97.5226682 181.927132,97.672 181.820465,97.672 L181.628465,97.672 C181.521797,97.672 181.45953,97.6506669 181.44166,97.608 C181.524987,97.5013328 181.616244,97.3626675 181.715433,97.192 C182.149387,96.4453296 182.154349,95.8586688 181.730319,95.432 C181.306289,95.0053312 180.454283,94.792 179.174277,94.792 C178.555607,94.792 177.943559,94.9733315 177.338113,95.336 C176.732666,95.6986685 176.281166,96.1359974 175.983598,96.648 C175.50005,97.4800042 175.375158,98.0986646 175.608919,98.504 C175.84268,98.9093354 176.252662,99.2133323 176.838878,99.416 C177.425094,99.6186677 178.092531,99.7733328 178.841208,99.88 C179.589886,99.9866672 180.251123,100.151999 180.824941,100.376 C181.398758,100.600001 181.790143,100.935998 181.999106,101.384 C182.20807,101.832002 182.052182,102.503996 181.531437,103.4 C181.295863,103.805335 180.981158,104.199998 180.587315,104.584 C180.193471,104.968002 179.758699,105.330665 179.282985,105.672 C178.807272,106.013335 178.315064,106.327999 177.806347,106.616 C177.29763,106.904001 176.810618,107.154666 176.345296,107.368 C175.901308,107.581334 175.41156,107.799999 174.876039,108.024 C174.340517,108.248001 173.782303,108.455999 173.201379,108.648 C172.620455,108.840001 172.050571,108.994666 171.491709,109.112 C170.932848,109.229334 170.40809,109.288 169.917421,109.288 C169.682753,109.288 169.33732,109.24 168.881111,109.144 C168.424903,109.048 167.972667,108.936001 167.52439,108.808 C167.076112,108.679999 166.683408,108.557334 166.346266,108.44 C166.009123,108.322666 165.842286,108.242667 165.84575,108.2 C165.613089,108.306667 165.350803,108.482665 165.058884,108.728 Z M187.671624,104.728 C187.451183,105.144002 187.318175,105.501332 187.272594,105.8 C187.227013,106.098668 187.279528,106.338666 187.430141,106.52 C187.580753,106.701334 187.890723,106.792 188.360058,106.792 C188.594726,106.792 188.876888,106.765334 189.206553,106.712 C189.536218,106.658666 189.859177,106.589334 190.17544,106.504 C190.491702,106.418666 190.775961,106.333334 191.028223,106.248 C191.280485,106.162666 191.440346,106.098667 191.50781,106.056 C191.609007,105.992 191.651673,105.992 191.63581,106.056 C191.619948,106.12 191.578787,106.2 191.512326,106.296 C191.445865,106.392 191.363406,106.488 191.264945,106.584 C191.166484,106.68 191.072856,106.749333 190.984058,106.792 C190.708731,106.898667 190.223815,107.090665 189.529296,107.368 C188.834777,107.645335 188.03807,107.933332 187.139152,108.232 C186.282901,108.530668 185.470558,108.781332 184.702101,108.984 C183.933644,109.186668 183.33609,109.288 182.909421,109.288 C182.418752,109.288 182.121545,109.138668 182.017792,108.84 C181.914038,108.541332 181.992347,108.168002 182.252719,107.72 C182.339509,107.570666 182.419234,107.442667 182.491894,107.336 C182.564554,107.229333 182.661144,107.090668 182.781667,106.92 C182.926987,106.706666 183.190592,106.317336 183.572491,105.752 C183.954389,105.186664 184.376577,104.552004 184.839067,103.848 C185.301556,103.143996 185.761806,102.43467 186.219828,101.72 C186.677851,101.00533 187.05564,100.392003 187.353208,99.88 L188.004135,98.76 C188.326501,98.2053306 188.579666,97.7146688 188.76364,97.288 C188.947613,96.8613312 189.033124,96.5306678 189.020175,96.296 C189.000299,96.1466659 188.938258,96.0240005 188.834051,95.928 C188.729844,95.8319995 188.56041,95.784 188.325742,95.784 C188.197741,95.784 188.054244,95.8106664 187.895247,95.864 C187.73625,95.9173336 187.624752,95.944 187.560752,95.944 C187.518085,95.944 187.485948,95.8800006 187.46434,95.752 C187.442731,95.6239994 187.503858,95.5280003 187.647721,95.464 C187.859048,95.3573328 188.267566,95.1866678 188.873288,94.952 C189.479009,94.7173322 190.139785,94.4613347 190.855638,94.184 C191.626555,93.8853318 192.354431,93.6240011 193.039286,93.4 C193.724142,93.1759989 194.183897,93.064 194.418565,93.064 C194.653232,93.064 194.772936,93.1333326 194.777678,93.272 C194.782421,93.4106674 194.735198,93.5653325 194.636008,93.736 L194.561617,93.864 C194.43763,94.0773344 194.207254,94.4186643 193.870483,94.888 C193.533712,95.3573357 193.12962,95.9333299 192.658196,96.616 C192.186771,97.2986701 191.658695,98.0879955 191.07395,98.984 C190.489205,99.8800045 189.893075,100.850661 189.28554,101.896 L188.39284,103.432 C188.132467,103.880002 187.892065,104.311998 187.671624,104.728 Z M197.107179,87.144 C197.228527,87.3573344 197.336609,87.6026653 197.431427,87.88 C197.526246,88.1573347 197.595262,88.4239987 197.638479,88.68 C197.681696,88.9360013 197.678507,89.1066662 197.628913,89.192 C197.566919,89.2986672 197.345932,89.4586656 196.965944,89.672 C196.585956,89.8853344 196.165541,90.1039989 195.704686,90.328 C195.243832,90.5520011 194.809149,90.7493325 194.400625,90.92 C193.992101,91.0906675 193.723842,91.176 193.595842,91.176 C193.531841,91.176 193.436069,91.0746677 193.308522,90.872 C193.180975,90.6693323 193.063594,90.4400013 192.956377,90.184 C192.84916,89.9279987 192.765511,89.6773346 192.705428,89.432 C192.645345,89.1866654 192.640101,89.0213338 192.689696,88.936 C192.751689,88.8293328 192.986443,88.6640011 193.393964,88.44 C193.801484,88.2159989 194.241865,87.9813346 194.715118,87.736 C195.188371,87.4906654 195.632352,87.2773342 196.047076,87.096 C196.4618,86.9146658 196.707357,86.8133334 196.783756,86.792 C196.878025,86.8133334 196.985831,86.9306656 197.107179,87.144 Z M206.660614,104.568 C206.661617,104.621334 206.639555,104.696 206.594428,104.792 C206.549301,104.888 206.485075,104.989333 206.401748,105.096 C206.318421,105.202667 206.226161,105.288 206.124965,105.352 C205.462721,105.757335 204.681423,106.183998 203.781048,106.632 C202.880673,107.080002 201.977575,107.495998 201.071729,107.88 C200.817735,107.986667 200.470481,108.125332 200.029956,108.296 C199.589432,108.466668 199.114681,108.631999 198.605689,108.792 C198.096696,108.952001 197.589444,109.090666 197.083916,109.208 C196.578387,109.325334 196.133629,109.384 195.749627,109.384 C194.981623,109.384 194.343087,109.234668 193.833998,108.936 C193.324909,108.637332 192.966253,108.226669 192.758018,107.704 C192.549783,107.181331 192.512442,106.557337 192.645996,105.832 C192.779549,105.106663 193.094295,104.317338 193.590242,103.464 C194.123385,102.546662 194.753522,101.682671 195.480673,100.872 C196.207824,100.061329 196.922703,99.3360032 197.625331,98.696 C198.32796,98.0559968 198.955685,97.5173355 199.508526,97.08 C200.061367,96.6426645 200.453109,96.3173344 200.683763,96.104 C200.290826,96.0826666 199.932128,96.0666667 199.607659,96.056 C199.28319,96.0453333 198.971626,96.04 198.672958,96.04 C197.990288,96.04 197.411194,96.0453333 196.935659,96.056 C196.460124,96.0666667 196.016232,96.1146662 195.603969,96.2 C195.408504,96.2426669 195.198912,96.3279994 194.975185,96.456 C194.751459,96.5840006 194.567667,96.6799997 194.423804,96.744 C194.405935,96.7013331 194.381364,96.642667 194.350093,96.568 C194.318821,96.493333 194.327982,96.4133338 194.377577,96.328 C194.402374,96.2853331 194.431639,96.2533334 194.465371,96.232 C194.47777,96.2106666 194.687726,96.0880011 195.095247,95.864 C195.502768,95.6399989 196.004412,95.3733349 196.600195,95.064 C197.195978,94.7546651 197.853016,94.4133352 198.571328,94.04 C199.289641,93.6666648 199.971111,93.3200016 200.61576,93 C201.260409,92.6799984 201.813153,92.4080011 202.274007,92.184 C202.734862,91.9599989 203.031017,91.8266669 203.162481,91.784 C203.315279,91.7413331 203.430879,91.7626662 203.509285,91.848 C203.587691,91.9333338 203.593162,91.9973331 203.525698,92.04 C203.4369,92.0826669 203.294407,92.1626661 203.098214,92.28 C202.90202,92.3973339 202.800461,92.4986662 202.793533,92.584 C202.916613,92.776001 203.222754,92.9466659 203.711967,93.096 C204.201179,93.2453341 204.780548,93.3679995 205.450091,93.464 C206.119634,93.5600005 206.822898,93.6346664 207.559905,93.688 C208.296912,93.7413336 208.974741,93.768 209.59341,93.768 C210.510748,93.768 211.262239,93.7413336 211.847905,93.688 C212.433571,93.6346664 212.932528,93.5653338 213.344792,93.48 C213.735721,93.3946662 213.996915,93.3306669 214.128379,93.288 C214.149713,93.288 214.173781,93.3199997 214.200585,93.384 C214.22739,93.4480003 214.215995,93.5226662 214.1664,93.608 C214.141603,93.6506669 213.924945,93.7573325 213.516421,93.928 C213.107897,94.0986675 212.687846,94.279999 212.256256,94.472 C212.002262,94.5786672 211.692341,94.7173325 211.326483,94.888 C210.960626,95.0586675 210.576541,95.2239992 210.174216,95.384 C209.771891,95.5440008 209.362871,95.6879994 208.947144,95.816 C208.531417,95.9440006 208.157359,96.0186666 207.824958,96.04 C207.480159,96.0826669 207.088232,96.1146666 206.649165,96.136 C206.210097,96.1573334 205.752803,96.1733333 205.277268,96.184 C204.801733,96.1946667 204.320872,96.2053333 203.83467,96.216 C203.348468,96.2266667 202.902706,96.232 202.497371,96.232 C202.371377,96.3386672 202.167757,96.5146654 201.886505,96.76 C201.605253,97.0053346 201.289043,97.3199981 200.937867,97.704 C200.58669,98.0880019 200.215189,98.5253309 199.823352,99.016 C199.431515,99.5066691 199.06822,100.039997 198.733456,100.616 C198.225111,101.490671 197.8904,102.295996 197.729314,103.032 C197.568227,103.768004 197.572702,104.402664 197.742738,104.936 C197.912773,105.469336 198.241664,105.885332 198.729419,106.184 C199.217174,106.482668 199.845044,106.632 200.613048,106.632 C201.06105,106.632 201.524042,106.578667 202.002038,106.472 C202.480033,106.365333 202.955286,106.226668 203.42781,106.056 C203.900335,105.885332 204.355485,105.698668 204.793274,105.496 C205.231063,105.293332 205.62308,105.096001 205.969335,104.904 L206.557913,104.552 C206.625377,104.509333 206.65961,104.514666 206.660614,104.568 Z M217.8022,102.824 C217.986173,102.397331 218.157745,101.992002 218.316921,101.608 C218.476097,101.223998 218.609607,100.893335 218.717456,100.616 C218.825305,100.338665 218.89336,100.157334 218.921621,100.072 C218.505894,100.200001 218.035108,100.349332 217.50925,100.52 C216.983392,100.690668 216.448243,100.877332 215.903786,101.08 C215.35933,101.282668 214.836215,101.485332 214.334426,101.688 C213.832637,101.890668 213.404153,102.077332 213.048963,102.248 C212.372313,102.568002 211.813006,102.887998 211.371025,103.208 C210.929044,103.528002 210.577872,103.911998 210.3175,104.36 C209.957938,104.97867 209.823109,105.522664 209.913006,105.992 C210.002904,106.461336 210.431848,106.696 211.199852,106.696 C211.605187,106.696 212.069911,106.621334 212.594038,106.472 C213.118164,106.322666 213.622681,106.152001 214.107604,105.96 C214.592527,105.767999 215.029444,105.576001 215.418367,105.384 C215.807289,105.191999 216.086077,105.042667 216.254738,104.936 C216.524594,104.765332 216.741616,104.621334 216.905809,104.504 C217.070003,104.386666 217.203424,104.221334 217.306077,104.008 C217.452854,103.645332 217.618227,103.250669 217.8022,102.824 Z M219.844939,97.272 C219.978039,96.7493307 220.018876,96.3120018 219.967453,95.96 C219.91603,95.6079982 219.761681,95.3413342 219.504401,95.16 C219.247121,94.9786658 218.851819,94.888 218.318483,94.888 C217.849148,94.888 217.367558,94.9733325 216.8737,95.144 C216.379842,95.3146675 215.920726,95.5173322 215.49634,95.752 C215.071953,95.9866678 214.711572,96.2213322 214.415185,96.456 C214.118799,96.6906678 213.922746,96.8719994 213.827021,97 C213.706498,97.1706675 213.560905,97.256 213.390238,97.256 C213.091569,97.256 212.876231,97.1493344 212.744217,96.936 C212.612202,96.7226656 212.632985,96.4666682 212.806567,96.168 C212.905756,95.9973325 213.00148,95.8693338 213.093742,95.784 C213.745594,95.5066653 214.5165,95.2080016 215.406483,94.888 C216.296467,94.5679984 217.200705,94.2693347 218.119225,93.992 C219.037745,93.7146653 219.923021,93.4853342 220.77508,93.304 C221.627139,93.1226658 222.351826,93.032 222.949163,93.032 C223.845167,93.032 224.458769,93.1599987 224.789988,93.416 C225.121206,93.6720013 225.267761,94.0346643 225.229658,94.504 C225.191555,94.9733357 225.016293,95.5226635 224.703866,96.152 C224.391438,96.7813365 224.045786,97.458663 223.666898,98.184 C223.098566,99.2720054 222.573273,100.322662 222.091003,101.336 C221.608733,102.349338 221.247995,103.245329 221.008778,104.024 C220.769561,104.802671 220.675803,105.431998 220.727501,105.912 C220.779199,106.392002 221.050379,106.632 221.541048,106.632 C221.775716,106.632 222.05651,106.589334 222.38344,106.504 C222.710369,106.418666 223.035926,106.317334 223.36012,106.2 C223.684314,106.082666 223.981836,105.965334 224.252697,105.848 C224.523557,105.730666 224.703384,105.650667 224.792181,105.608 C224.984182,105.608 225.045721,105.703999 224.9768,105.896 C224.914807,106.002667 224.83768,106.098666 224.745419,106.184 C224.677955,106.226667 224.455964,106.333332 224.07944,106.504 C223.702915,106.674668 223.2438,106.877332 222.702079,107.112 C222.160358,107.346668 221.566681,107.597332 220.921028,107.864 C220.275376,108.130668 219.644365,108.381332 219.027977,108.616 C218.411589,108.850668 217.857341,109.042666 217.365215,109.192 C216.873089,109.341334 216.509697,109.416 216.275029,109.416 C215.997694,109.416 215.822789,109.304001 215.750307,109.08 C215.677826,108.855999 215.675406,108.557335 215.743049,108.184 C215.810692,107.810665 215.933762,107.378669 216.112265,106.888 C216.290767,106.397331 216.492332,105.885336 216.716965,105.352 C216.146983,105.672002 215.436248,106.050664 214.584739,106.488 C213.733229,106.925336 212.843898,107.335998 211.916719,107.72 C210.989539,108.104002 210.080469,108.429332 209.189482,108.696 C208.298495,108.962668 207.511678,109.096 206.829008,109.096 C206.253005,109.096 205.804371,109.005334 205.483091,108.824 C205.161811,108.642666 204.943964,108.402668 204.829544,108.104 C204.715124,107.805332 204.703268,107.458669 204.793976,107.064 C204.884684,106.669331 205.054022,106.258669 205.301996,105.832 C205.698753,105.14933 206.232212,104.589336 206.902386,104.152 C207.572561,103.714664 208.481356,103.261336 209.628798,102.792 C210.15812,102.578666 210.887728,102.296002 211.817643,101.944 C212.747558,101.591998 213.696558,101.234668 214.664673,100.872 C215.632787,100.509332 216.538256,100.162668 217.381105,99.832 C218.223955,99.5013317 218.850498,99.240001 219.260754,99.048 C219.517112,98.3866634 219.711839,97.7946693 219.844939,97.272 Z" id="Casita" fill="#000000" sketch:type="MSShapeGroup"></path>
        <path d="M143.559986,119.984 C142.92376,119.962667 142.257433,119.930667 141.560984,119.888 C140.864535,119.845333 140.191318,119.792 139.541313,119.728 C138.891308,119.664 138.381867,119.589334 138.012974,119.504 C137.956528,119.461333 137.952359,119.349334 138.000466,119.168 C138.048573,118.986666 138.130401,118.810668 138.245953,118.64 C138.375948,118.447999 138.562387,118.298667 138.805275,118.192 C139.499728,118.426668 140.301336,118.613333 141.210122,118.752 C142.118908,118.890667 143.003068,119.002666 143.86263,119.088 C144.722192,119.173334 145.512741,119.226667 146.234301,119.248 C146.955861,119.269333 147.4873,119.28 147.828635,119.28 C148.660639,119.28 149.528408,119.258667 150.431967,119.216 C151.335526,119.173333 152.182294,119.12 152.972296,119.056 C153.762299,118.992 154.429624,118.928 154.974291,118.864 C155.518959,118.8 155.855621,118.736 155.984287,118.672 C156.026954,118.672 156.062065,118.714666 156.089623,118.8 C156.117181,118.885334 156.09485,118.981333 156.02263,119.088 C155.863747,119.322668 155.63792,119.498666 155.345144,119.616 C155.052367,119.733334 154.695929,119.818666 154.275817,119.872 C153.855705,119.925334 153.3611,119.962667 152.791986,119.984 C152.222873,120.005333 151.582547,120.037333 150.870989,120.08 C150.749877,120.101333 150.617104,120.218666 150.472664,120.432 C150.140452,120.922669 149.671589,121.733328 149.066058,122.864 C148.460528,123.994672 147.796567,125.27466 147.074154,126.704 C146.351742,128.13334 145.610787,129.637325 144.851267,131.216 C144.091748,132.794675 143.393625,134.28266 142.756879,135.68 C142.120133,137.07734 141.577614,138.303995 141.129305,139.36 C140.680996,140.416005 140.422849,141.135998 140.354859,141.52 C140.432638,141.562667 140.505249,141.589333 140.572694,141.6 C140.640139,141.610667 140.76986,141.616 140.961861,141.616 C141.239196,141.616 141.486415,141.605333 141.703527,141.584 C141.920639,141.562667 142.082526,141.552 142.189193,141.552 C142.274527,141.552 142.280751,141.637332 142.207866,141.808 C142.134981,141.978668 142.076873,142.096 142.033541,142.16 C141.932434,142.309334 141.807214,142.384 141.65788,142.384 C141.551213,142.384 141.409103,142.373333 141.231546,142.352 C141.053989,142.330667 140.798158,142.314667 140.464045,142.304 C140.129932,142.293333 139.698103,142.277333 139.168544,142.256 C138.638985,142.234667 137.958214,142.224 137.12621,142.224 C136.848875,142.224 136.537656,142.234667 136.192544,142.256 C135.847432,142.277333 135.518324,142.298667 135.205212,142.32 C134.8921,142.341333 134.610992,142.362667 134.36188,142.384 C134.112769,142.405333 133.945548,142.416 133.860215,142.416 C133.796214,142.416 133.771769,142.373334 133.786878,142.288 C133.801987,142.202666 133.845651,142.106667 133.917871,142 C133.990091,141.893333 134.067477,141.802667 134.150031,141.728 C134.232585,141.653333 134.316527,141.616 134.401861,141.616 C134.608306,141.594667 134.875136,141.578667 135.20236,141.568 C135.529584,141.557333 135.743746,141.477334 135.844854,141.328 C135.931518,141.199999 136.138173,140.816003 136.464825,140.176 C136.791477,139.535997 137.178121,138.768004 137.624767,137.872 C138.071414,136.975996 138.547107,136.021338 139.051862,135.008 C139.556617,133.994662 140.019756,133.050671 140.441291,132.176 C140.100621,132.112 139.651402,132.058667 139.093621,132.016 C138.535839,131.973333 137.936956,131.952 137.296953,131.952 C136.550282,131.952 135.81929,131.984 135.103955,132.048 C134.38862,132.112 133.781184,132.229332 133.28163,132.4 C132.857196,132.869336 132.404046,133.365331 131.922168,133.888 C131.440289,134.410669 130.960141,134.938664 130.481707,135.472 C130.003274,136.005336 129.544458,136.533331 129.105247,137.056 C128.666036,137.578669 128.294774,138.063998 127.99145,138.512 C127.399247,139.386671 127.159821,140.015998 127.273164,140.4 C127.386508,140.784002 127.720509,140.976 128.275178,140.976 C128.829848,140.976 129.187344,140.96 129.347677,140.928 C129.508011,140.896 129.641509,140.88 129.748176,140.88 C129.918844,140.88 129.975289,140.922666 129.917513,141.008 C129.888625,141.050667 129.793683,141.12 129.632684,141.216 C129.471686,141.312 129.280413,141.413333 129.058859,141.52 C128.76575,141.669334 128.388703,141.855999 127.927706,142.08 C127.466709,142.304001 126.990884,142.416 126.500215,142.416 C126.436214,142.416 126.278104,142.405333 126.02588,142.384 C125.773656,142.362667 125.466381,142.336 125.104045,142.304 C124.741709,142.272 124.354435,142.245333 123.94221,142.224 C123.529985,142.202667 123.131878,142.192 122.747876,142.192 C122.21454,142.192 121.775322,142.202667 121.43021,142.224 C121.085097,142.245333 120.809323,142.266667 120.602878,142.288 C120.396433,142.309333 120.248657,142.330667 120.159546,142.352 C120.070435,142.373333 120.004547,142.384 119.96188,142.384 C119.919214,142.384 119.907157,142.346667 119.925711,142.272 C119.944265,142.197333 119.982429,142.117334 120.040205,142.032 C120.126869,141.903999 120.230755,141.829333 120.351866,141.808 C120.622976,141.722666 121.040635,141.562668 121.604854,141.328 C122.204851,141.071999 122.876,140.640003 123.618322,140.032 C124.360643,139.423997 125.299002,138.597339 126.433426,137.552 C127.208746,136.847996 128.189378,135.888006 129.375354,134.672 C130.561329,133.455994 131.826728,132.122674 133.171587,130.672 C134.516446,129.221326 135.886895,127.701341 137.282973,126.112 C138.679051,124.522659 139.982055,122.992007 141.192025,121.52 L145.02632,120.016 C144.684985,120.016 144.196212,120.005333 143.559986,119.984 Z M142.52752,127.984 C142.92328,127.194663 143.324533,126.389337 143.731293,125.568 C144.138052,124.746663 144.51764,123.973337 144.870068,123.248 C145.222496,122.522663 145.486035,121.968002 145.660693,121.584 C145.92268,121.007997 146.056225,120.645334 146.061332,120.496 C146.06644,120.346666 146.015661,120.272 145.908993,120.272 C145.695659,120.272 145.3525,120.447998 144.879507,120.8 C144.406513,121.152002 143.838086,121.62133 143.174209,122.208 C142.510331,122.79467 141.794022,123.466663 141.025259,124.224 C140.256496,124.981337 139.478635,125.759996 138.691651,126.56 C137.904667,127.360004 137.142639,128.154663 136.405544,128.944 C135.668449,129.733337 135.019251,130.447997 134.457931,131.088 C134.857042,131.002666 135.350424,130.912 135.938091,130.816 C136.525758,130.72 137.149027,130.618667 137.807916,130.512 C138.466806,130.405333 139.122075,130.304 139.773742,130.208 C140.42541,130.112 141.018235,130.032 141.552236,129.968 C141.806669,129.434664 142.13176,128.773337 142.52752,127.984 Z M143.235498,140.432 C144.037045,139.941331 144.878301,139.392003 145.75929,138.784 C146.640279,138.175997 147.551865,137.53067 148.494075,136.848 C149.436285,136.16533 150.373147,135.48267 151.304691,134.8 C152.874003,133.647994 154.359183,132.549339 155.760275,131.504 C157.161367,130.458661 158.288445,129.605337 159.141544,128.944 L158.629544,128.944 C157.840207,128.944 157.003214,128.912 156.118541,128.848 C155.233869,128.784 154.418209,128.752 153.671539,128.752 C152.988869,128.752 152.462098,128.805333 152.09121,128.912 C151.720322,129.018667 151.338108,129.189332 150.944556,129.424 C150.880556,129.424 150.807945,129.397334 150.726721,129.344 C150.645497,129.290666 150.640995,129.210667 150.713215,129.104 C150.756546,129.04 150.796101,128.997333 150.831878,128.976 C151.203431,128.805332 151.739752,128.517335 152.440856,128.112 C153.141961,127.706665 153.843055,127.301335 154.544159,126.896 C155.245264,126.490665 155.860526,126.133335 156.389966,125.824 C156.919405,125.514665 157.21612,125.36 157.280121,125.36 C157.429455,125.36 157.518066,125.386666 157.545956,125.44 C157.573846,125.493334 157.587459,125.552 157.586794,125.616 C157.586129,125.68 157.592519,125.749333 157.605966,125.824 C157.619412,125.898667 157.679135,125.968 157.785138,126.032 C157.968919,126.138667 158.248697,126.245333 158.624479,126.352 C159.000261,126.458667 159.440204,126.549333 159.944319,126.624 C160.448435,126.698667 161.002431,126.762666 161.606324,126.816 C162.210217,126.869334 162.832156,126.896 163.472159,126.896 C163.877495,126.896 164.311545,126.869334 164.774324,126.816 C165.237103,126.762666 165.657375,126.693334 166.035152,126.608 C166.056485,126.608 166.059598,126.650666 166.044489,126.736 C166.02938,126.821334 166.000159,126.896 165.956828,126.96 C165.92794,127.002667 165.891996,127.04 165.848997,127.072 C165.805998,127.104 165.777276,127.130667 165.762832,127.152 C164.862172,127.600002 163.689981,128.346661 162.246222,129.392 C160.802463,130.437339 158.916848,131.749325 156.58932,133.328 C156.410433,133.434667 156.258215,133.541333 156.132662,133.648 C156.007108,133.754667 155.865557,133.861333 155.708003,133.968 C153.960469,135.162673 152.449454,136.181329 151.174913,137.024 C149.900372,137.866671 148.783568,138.586664 147.824467,139.184 C148.115581,139.226667 148.44369,139.301333 148.808806,139.408 C149.173921,139.514667 149.592364,139.621333 150.064147,139.728 C150.53593,139.834667 151.06826,139.930666 151.661154,140.016 C152.254048,140.101334 152.923821,140.144 153.670491,140.144 C154.459828,140.144 155.152097,140.074667 155.747319,139.936 C156.342541,139.797333 156.990694,139.525335 157.691799,139.12 C157.942241,138.970666 158.054905,138.906667 158.029794,138.928 C158.004683,138.949333 158.034794,138.96 158.120128,138.96 C158.226795,138.96 158.235074,139.018666 158.144966,139.136 C158.054857,139.253334 157.99536,139.333333 157.966472,139.376 C157.793144,139.632001 157.434378,139.941332 156.890162,140.304 C156.345946,140.666668 155.695239,141.013332 154.938021,141.344 C154.180803,141.674668 153.354763,141.957332 152.459876,142.192 C151.564988,142.426668 150.669556,142.544 149.773551,142.544 C149.218882,142.544 148.637887,142.512 148.030549,142.448 C147.423211,142.384 146.807104,142.309334 146.18221,142.224 C145.557316,142.138666 144.925209,142.064 144.285871,142 C143.646533,141.936 143.028205,141.904 142.430868,141.904 C142.0682,141.904 141.738926,141.941333 141.443038,142.016 C141.147149,142.090667 140.810321,142.170666 140.432544,142.256 C140.325877,142.256 140.315875,142.192001 140.402539,142.064 C140.416983,142.042667 140.503313,141.946668 140.661532,141.776 L141.047527,141.584 C141.704634,141.306665 142.433951,140.922669 143.235498,140.432 Z M164.7192,128.528 C164.816531,128.399999 164.947083,128.325333 165.110861,128.304 C165.189305,128.282667 165.442523,128.208001 165.870522,128.08 C166.298521,127.951999 166.81029,127.802668 167.405844,127.632 C168.001399,127.461332 168.625499,127.280001 169.278164,127.088 C169.930829,126.895999 170.503153,126.736001 170.995152,126.608 C171.308929,126.522666 171.524648,126.464 171.642314,126.432 C171.759981,126.4 171.850813,126.384 171.914813,126.384 C171.978813,126.384 172.035425,126.410666 172.084648,126.464 C172.133872,126.517334 172.101041,126.597333 171.986154,126.704 C171.806602,126.874668 171.462838,127.279997 170.954852,127.92 C170.446865,128.560003 169.897277,129.269329 169.306072,130.048 C168.714866,130.826671 168.132613,131.599996 167.559296,132.368 C166.985979,133.136004 166.547666,133.743998 166.244342,134.192 C165.088823,135.898675 164.559584,137.215995 164.656608,138.144 C164.753631,139.072005 165.570135,139.536 167.106142,139.536 C167.89548,139.536 168.659801,139.376002 169.39913,139.056 C170.138459,138.735998 170.791221,138.362669 171.357436,137.936 C171.737208,137.658665 172.276854,137.050671 172.97639,136.112 C173.091942,135.941332 173.248935,135.717335 173.447373,135.44 C173.645812,135.162665 173.85508,134.869335 174.075184,134.56 C174.295289,134.250665 174.508168,133.952001 174.713829,133.664 C174.919489,133.375999 175.087315,133.136001 175.217311,132.944 C175.903067,131.962662 176.493872,131.050671 176.989742,130.208 C177.485612,129.365329 177.796094,128.741335 177.921195,128.336 C178.030523,128.079999 177.989187,127.952 177.797186,127.952 C177.669185,127.952 177.542909,127.957333 177.418353,127.968 C177.293797,127.978667 177.28585,127.888001 177.394513,127.696 C177.437845,127.632 177.548786,127.562667 177.727341,127.488 C177.905895,127.413333 178.227056,127.301334 178.690832,127.152 C179.118831,127.023999 179.584157,126.896001 180.086823,126.768 C180.589489,126.639999 181.07237,126.533334 181.535481,126.448 C181.998593,126.362666 182.400976,126.304 182.742644,126.272 C183.084311,126.24 183.308143,126.256 183.414145,126.32 C183.399701,126.341333 183.397646,126.368 183.40798,126.4 C183.418314,126.432 183.398039,126.501333 183.347152,126.608 C183.303155,126.736001 183.005668,127.135997 182.454682,127.808 C181.903696,128.480003 181.062121,129.573326 179.929931,131.088 C179.136842,132.133339 178.376097,133.146662 177.647674,134.128 C176.91925,135.109338 176.381719,135.855997 176.035063,136.368 C175.356196,137.370672 175.00483,138.16533 174.980956,138.752 C174.957082,139.33867 175.222475,139.632 175.777145,139.632 C176.139813,139.632 176.53703,139.557334 176.968806,139.408 C177.400582,139.258666 177.727242,139.130667 177.948796,139.024 C178.119464,139.024 178.159576,139.098666 178.069135,139.248 C177.978694,139.397334 177.876364,139.493333 177.762142,139.536 C177.297701,139.749334 176.674492,140.015998 175.892496,140.336 C175.1105,140.656002 174.318015,140.959999 173.515019,141.248 C172.712022,141.536001 171.964591,141.781332 171.272704,141.984 C170.580816,142.186668 170.064213,142.288 169.722878,142.288 C169.55221,142.288 169.473375,142.176001 169.48637,141.952 C169.499364,141.727999 169.571523,141.456002 169.702849,141.136 C169.834175,140.815998 169.994054,140.485335 170.182491,140.144 C170.370928,139.802665 170.551807,139.504001 170.725135,139.248 C170.060473,139.568002 169.320989,139.903998 168.50666,140.256 C167.692332,140.608002 166.871126,140.938665 166.043019,141.248 C165.214911,141.557335 164.43187,141.807999 163.693871,142 C162.955872,142.192001 162.330881,142.288 161.818878,142.288 C160.517538,142.288 159.685593,141.941337 159.323019,141.248 C158.960444,140.554663 159.154697,139.653339 159.905784,138.544 C160.064668,138.309332 160.324323,137.957336 160.684758,137.488 C161.045192,137.018664 161.459619,136.485336 161.928051,135.888 C162.396483,135.290664 162.883129,134.65067 163.388003,133.968 C163.892877,133.28533 164.361967,132.624003 164.795287,131.984 C165.45971,131.002662 165.814187,130.250669 165.85873,129.728 C165.903273,129.205331 165.701879,128.912 165.254541,128.848 L164.785873,128.784 C164.644094,128.741333 164.62187,128.656001 164.7192,128.528 Z M188.96713,139.056 C188.851579,139.226668 188.454588,139.450665 187.776147,139.728 C187.061929,140.026668 186.14628,140.378665 185.029174,140.784 C183.912067,141.189335 182.83642,141.541332 181.8022,141.84 C181.295757,141.989334 180.846431,142.117333 180.45421,142.224 C180.061988,142.330667 179.737882,142.384 179.48188,142.384 C179.183212,142.384 178.862158,142.314667 178.518709,142.176 C178.175259,142.037333 177.908535,141.872001 177.718529,141.68 C177.57808,141.509332 177.465689,141.376 177.381353,141.28 C177.297017,141.184 177.290959,141.082667 177.363178,140.976 C177.420954,140.890666 177.501785,140.810667 177.605672,140.736 C177.70956,140.661333 177.818946,140.570667 177.933832,140.464 C177.998498,140.4 178.077606,140.314667 178.171159,140.208 C178.264713,140.101333 178.347598,139.994667 178.419818,139.888 C178.844918,139.354664 179.437837,138.581338 180.198593,137.568 C180.959349,136.554662 181.776313,135.434673 182.649509,134.208 C183.522705,132.981327 184.419442,131.712007 185.339747,130.4 C186.260052,129.087993 187.102958,127.866672 187.868489,126.736 C188.807347,125.349326 189.560312,124.229338 190.127404,123.376 C190.694497,122.522662 191.130031,121.840003 191.43402,121.328 C191.846671,120.623996 192.07549,120.160001 192.120485,119.936 C192.16548,119.711999 192.160087,119.546667 192.104306,119.44 C192.041636,119.311999 191.951801,119.232 191.8348,119.2 C191.717798,119.168 191.604244,119.146667 191.494132,119.136 C191.38402,119.125333 191.291632,119.12 191.216965,119.12 C191.142298,119.12 191.119408,119.098667 191.148296,119.056 C191.624948,118.351996 192.161934,118 192.75927,118 C193.207272,118 193.731656,118.005333 194.332437,118.016 C194.933218,118.026667 195.436269,118.032 195.841604,118.032 C196.097605,118.032 196.380435,118.016 196.690103,117.984 C196.99977,117.952 197.3041,117.92 197.6031,117.888 C197.902101,117.856 198.183375,117.818667 198.446931,117.776 C198.710487,117.733333 198.910039,117.690667 199.045594,117.648 C199.145372,117.626667 199.193039,117.658666 199.188597,117.744 C199.184154,117.829334 199.143935,117.935999 199.067938,118.064 C198.991941,118.192001 198.891167,118.309333 198.765614,118.416 C198.64006,118.522667 198.527396,118.586667 198.427618,118.608 C198.285174,118.629333 198.165953,118.64 198.069953,118.64 C197.973952,118.64 197.779733,118.682666 197.487289,118.768 C197.351734,118.810667 197.165461,118.943999 196.928466,119.168 C196.69147,119.392001 196.378482,119.743998 195.989492,120.224 C195.600502,120.704002 195.110412,121.333329 194.519206,122.112 C193.928,122.890671 193.203199,123.866661 192.344779,125.04 C191.645244,125.978671 190.950886,126.933328 190.261684,127.904 C189.572483,128.874672 188.901347,129.818662 188.248255,130.736 C187.595164,131.653338 186.99608,132.506663 186.450986,133.296 C185.905892,134.085337 185.44558,134.757331 185.070037,135.312 C184.651161,135.93067 184.234014,136.554664 183.818584,137.184 C183.403153,137.813336 183.126001,138.309332 182.987121,138.672 C182.862684,139.013335 182.923358,139.333332 183.169145,139.632 C183.414931,139.930668 183.783154,140.08 184.273823,140.08 C184.657825,140.08 185.088597,140.026667 185.566152,139.92 C186.043707,139.813333 186.5037,139.685334 186.946142,139.536 C187.388585,139.386666 187.793689,139.237334 188.161465,139.088 C188.52924,138.938666 188.806012,138.821334 188.991789,138.736 C189.062014,138.821334 189.053794,138.927999 188.96713,139.056 Z" id="Azul" fill="#000000" sketch:type="MSShapeGroup"></path>
    </g>
</svg>